<svg width="48" height="48" viewBox="0 0 48 48" fill="none" xmlns="http://www.w3.org/2000/svg">
<path d="M0 8C0 3.58172 3.58172 0 8 0H40C44.4183 0 48 3.58172 48 8V40C48 44.4183 44.4183 48 40 48H8C3.58172 48 0 44.4183 0 40V8Z" fill="white"/>
<path d="M29.0055 41.9685L39.8295 39.627C39.8295 39.627 35.9235 13.2075 35.892 13.032C35.865 12.858 35.721 12.744 35.5755 12.744C35.43 12.744 32.682 12.54 32.682 12.54C32.682 12.54 30.7695 10.629 30.5235 10.4235C30.4701 10.376 30.4086 10.3384 30.342 10.3125L28.971 41.9685H29.0055ZM23.565 22.9575C23.565 22.9575 22.35 22.3215 20.904 22.3215C18.7335 22.3215 18.648 23.6805 18.648 24.033C18.648 25.881 23.508 26.6055 23.508 30.9765C23.508 34.419 21.348 36.6165 18.399 36.6165C14.868 36.6165 13.089 34.419 13.089 34.419L14.058 31.29C14.058 31.29 15.9255 32.889 17.478 32.889C17.6663 32.8952 17.854 32.8638 18.03 32.7965C18.206 32.7293 18.3668 32.6275 18.503 32.4973C18.6392 32.3671 18.7481 32.2111 18.8232 32.0383C18.8983 31.8655 18.9382 31.6794 18.9405 31.491C18.9405 29.0625 14.9595 28.95 14.9595 24.9525C14.9085 21.597 17.316 18.3285 22.2 18.3285C24.0855 18.3285 25.0125 18.87 25.0125 18.87L23.595 22.9425L23.565 22.9575ZM22.755 7.245C22.959 7.245 23.1615 7.302 23.3625 7.4475C21.8865 8.145 20.2665 9.906 19.6005 13.4355C18.6606 13.7393 17.716 14.0283 16.767 14.3025C17.5455 11.625 19.4265 7.26 22.755 7.26V7.245ZM24.6075 11.6685V11.871C23.4765 12.219 22.233 12.597 21.0165 12.975C21.7155 10.3095 23.016 9.0075 24.144 8.5185C24.4335 9.27 24.6075 10.2825 24.6075 11.6685ZM25.416 8.3175C26.457 8.4285 27.1275 9.618 27.5595 10.95C27.036 11.121 26.457 11.2965 25.8225 11.499V11.121C25.8225 9.993 25.6785 9.0645 25.416 8.3145V8.3175ZM29.904 10.251C29.874 10.251 29.814 10.2825 29.787 10.2825C29.76 10.2825 29.3535 10.395 28.716 10.5975C28.0815 8.748 26.952 7.0425 24.954 7.0425H24.7815C24.2025 6.3135 23.5035 6 22.8975 6C18.2385 6 16.0125 11.8155 15.315 14.769C13.524 15.3165 12.2205 15.723 12.075 15.78C11.0625 16.0995 11.034 16.128 10.917 17.085C10.8045 17.778 8.172 38.1795 8.172 38.1795L28.5135 42L29.904 10.251Z" fill="#8CBB26"/>
</svg>
